<svg xmlns="http://www.w3.org/2000/svg" xmlns:xlink="http://www.w3.org/1999/xlink" width="21.637" height="20.37" viewBox="0 0 21.637 20.37">
  <defs>
    <clipPath id="clip-path">
      <rect id="Rectangle_18729" data-name="Rectangle 18729" width="21.637" height="20.37" fill="#fff" stroke="rgba(0,0,0,0)" stroke-width="1"/>
    </clipPath>
  </defs>
  <g id="Group_17220" data-name="Group 17220" opacity="0.63">
    <g id="Group_17219" data-name="Group 17219" clip-path="url(#clip-path)">
      <path id="Path_41510" data-name="Path 41510" d="M16.661,5.966c-.035.748-.061,1.5-.112,2.244a.334.334,0,0,0,.285.4,1.772,1.772,0,0,0,1.253-.195,1.045,1.045,0,0,1,1.063.1.467.467,0,0,1,.075.816,4.782,4.782,0,0,1-.94.525c-.337.159-.706.253-1.031.431a.91.91,0,0,0-.462,1.276,6.513,6.513,0,0,0,4.55,4.068c.111.025.276.111.291.192a.425.425,0,0,1-.129.362,3.879,3.879,0,0,1-.919.487c-.5.159-1.025.228-1.529.373a.673.673,0,0,0-.38.329,3.67,3.67,0,0,0-.209.775.357.357,0,0,1-.455.313c-.533-.061-1.067-.13-1.6-.161a3.273,3.273,0,0,0-2.169.667c-.246.179-.5.343-.747.524a4.436,4.436,0,0,1-5.33-.011c-.169-.125-.354-.231-.516-.364A4.031,4.031,0,0,0,4.129,18.4c-.821.161-.82.167-1.019-.66-.161-.667-.165-.645-.834-.781a12.664,12.664,0,0,1-1.549-.425,1.638,1.638,0,0,1-.606-.4c-.216-.218-.13-.445.173-.5A5.994,5.994,0,0,0,4.142,12.91a8.134,8.134,0,0,0,.684-1.221A.992.992,0,0,0,4.3,10.21c-.279-.142-.587-.227-.878-.348a6.018,6.018,0,0,1-.73-.336c-.387-.226-.514-.5-.4-.76a.9.9,0,0,1,.959-.419c.269.077.528.19.8.257a1.935,1.935,0,0,0,.555.049c.429-.021.52-.136.506-.554-.031-.9-.053-1.8-.085-2.7A5.193,5.193,0,0,1,8.868.3a6.3,6.3,0,0,1,5.8.961,4.84,4.84,0,0,1,1.98,4.072c0,.211,0,.421,0,.632h.019" transform="translate(0 0)" fill="#fff" stroke="rgba(0,0,0,0)" stroke-width="1"/>
    </g>
  </g>
</svg>
