<svg id="Group_17222" data-name="Group 17222" xmlns="http://www.w3.org/2000/svg" xmlns:xlink="http://www.w3.org/1999/xlink" width="21.121" height="21.624" viewBox="0 0 21.121 21.624">
  <defs>
    <clipPath id="clip-path">
      <rect id="Rectangle_18730" data-name="Rectangle 18730" width="21.121" height="21.624" fill="none"/>
    </clipPath>
  </defs>
  <g id="Group_17221" data-name="Group 17221" clip-path="url(#clip-path)">
    <path id="Path_41511" data-name="Path 41511" d="M8.244,12.024,0,.02A.916.916,0,0,1,.1.009q3.046,0,6.093,0a.163.163,0,0,1,.153.082q.922,1.349,1.848,2.7L10.15,5.633l1.439,2.1c.047.068.1.135.154.219.106-.121.206-.235.305-.35Q13.676,5.708,15.3,3.817,16.787,2.091,18.269.362a.55.55,0,0,0,.071-.08.567.567,0,0,1,.6-.281c.451.023.9.006,1.356.006h.141l-.624.727L17.058,3.943,12.9,8.772c-.088.1-.169.21-.263.307-.061.062-.053.105-.008.171q.747,1.08,1.488,2.164,1.173,1.71,2.346,3.421,1.515,2.2,3.032,4.406.774,1.126,1.546,2.254c.024.035.045.072.078.125h-.132q-3.011,0-6.021,0a.236.236,0,0,1-.219-.12q-.751-1.1-1.5-2.2l-2.032-2.958L9.149,13.34c-.022-.032-.046-.063-.077-.106-.14.16-.276.313-.409.468Q6.882,15.776,5.1,17.85q-1.592,1.852-3.187,3.7a.193.193,0,0,1-.125.066c-.575,0-1.15,0-1.725,0A.6.6,0,0,1,0,21.61l8.243-9.586M18.566,20.28c-.023-.039-.033-.059-.046-.078q-1.469-2.1-2.939-4.209-1.273-1.821-2.547-3.642L11.061,9.526,7.813,4.881Q6.632,3.191,5.454,1.5a.171.171,0,0,0-.16-.088c-.88,0-1.761,0-2.641,0-.033,0-.066.005-.107.009a.488.488,0,0,0,.027.054q1.849,2.644,3.7,5.288,1.293,1.851,2.582,3.7,1.631,2.332,3.265,4.662,1.768,2.527,3.53,5.058a.192.192,0,0,0,.183.093c.52,0,1.039,0,1.559,0h1.176" transform="translate(0 0)" fill="#fff" stroke="rgba(0,0,0,0)" stroke-width="1" opacity="0.63"/>
    <path id="Path_41512" data-name="Path 41512" d="M67.271,47.289H66.094c-.52,0-1.039,0-1.559,0a.192.192,0,0,1-.183-.093q-1.762-2.531-3.53-5.058-1.631-2.332-3.265-4.662-1.293-1.85-2.582-3.7-1.848-2.645-3.7-5.288a.488.488,0,0,1-.027-.054c.042,0,.074-.009.107-.009.88,0,1.761,0,2.641,0a.171.171,0,0,1,.16.088q1.177,1.692,2.359,3.382l3.248,4.645,1.973,2.826Q63.012,41.182,64.286,43q1.47,2.1,2.939,4.209c.013.018.023.039.046.078" transform="translate(-48.705 -27.009)" fill="#182204"/>
  </g>
</svg>
